<?xml version="1.0" encoding="utf-8"?>
<!-- Generator: Adobe Illustrator 27.8.1, SVG Export Plug-In . SVG Version: 6.00 Build 0)  -->
<svg version="1.1" id="Слой_1" xmlns="http://www.w3.org/2000/svg" xmlns:xlink="http://www.w3.org/1999/xlink" x="0px" y="0px"
	 viewBox="0 0 200 200" style="enable-background:new 0 0 200 200;" xml:space="preserve">
<style type="text/css">
	.st0{fill:none;}
	.st1{fill:none;stroke:#374151;stroke-width:2;}
	.st2{fill:url(#SVGID_1_);}
	.st3{fill:#1E293B;}
	.st4{fill:url(#SVGID_00000000207438680680646010000008861186606281897088_);}
	.st5{fill:#FFFFFF;}
	.st6{fill:#F45897;}
</style>
<pattern  y="200" width="20" height="20" patternUnits="userSpaceOnUse" id="grid" viewBox="1 -21 20 20" style="overflow:visible;">
	<g>
		<rect x="1" y="-21" class="st0" width="20" height="20"/>
		<path class="st1" d="M21-1H1v-20"/>
	</g>
</pattern>
<linearGradient id="SVGID_1_" gradientUnits="userSpaceOnUse" x1="0" y1="200" x2="1" y2="199" gradientTransform="matrix(200 0 0 -200 0 40000)">
	<stop  offset="0" style="stop-color:#4ADE80"/>
	<stop  offset="0.25" style="stop-color:#FBBF24"/>
	<stop  offset="0.5" style="stop-color:#FB923C"/>
	<stop  offset="0.75" style="stop-color:#F87171"/>
	<stop  offset="1" style="stop-color:#C084FC"/>
</linearGradient>
<path class="st2" d="M45,0h110c24.9,0,45,20.1,45,45v110c0,24.9-20.1,45-45,45H45c-24.9,0-45-20.1-45-45V45C0,20.1,20.1,0,45,0z"/>
<path class="st3" d="M46.6,7.5h106.9c21.6,0,39.1,17.5,39.1,39.1v106.9c0,21.6-17.5,39.1-39.1,39.1H46.6C25,192.5,7.5,175,7.5,153.4
	V46.6C7.5,25,25,7.5,46.6,7.5z"/>
<pattern  id="SVGID_00000125583011159342222870000011257370084563150008_" xlink:href="#grid" patternTransform="matrix(1 0 0 -1 0 -16426)">
</pattern>
<path style="fill:url(#SVGID_00000125583011159342222870000011257370084563150008_);" d="M45.5,17.7h109c15.4,0,27.8,12.5,27.8,27.8
	v109c0,15.4-12.5,27.8-27.8,27.8h-109c-15.4,0-27.8-12.5-27.8-27.8v-109C17.7,30.1,30.1,17.7,45.5,17.7z"/>
<g>
	<path class="st5" d="M160.6,130.3c-0.7-1.2-1.7-1.7-2.9-1.7c-1.4,0-2.7,0.7-3.9,2c-4.2,5-7.7,8.6-10.5,10.7
		c-2.8,2.1-5.7,3.1-8.8,3.1c-3.2,0-5.5-1.2-7-3.6c-1.5-2.4-2.3-6.2-2.3-11.4c0-5.9,1-14.5,3.1-25.9c2.1-11.4,3.1-11,5.6-20.4
		c0.3-1.2,0.4-2.1,0.4-2.9c0-4.4-3.4-6.7-10.2-6.7c-2.9,0-5.2,0.5-6.9,1.5c-1.7,1-2.9,2.8-3.4,5.5c-3.5,18.6-5.9,22.6-9.6,33.4
		c-3.6,10.8-7.7,18.7-12.1,23.5c-4.4,4.8-9.5,7.3-15.4,7.3c-5.2,0-9.4-2.2-12.6-6.7c-3.2-4.5-4.8-10.9-4.8-19.1
		c0-11.3,2.1-21.9,6.3-31.6c4.2-9.8,10.6-17.6,19.1-23.6c7-4.9,12.9-7.8,21.6-8.6c2.4-0.2,4.1-2.3,4-4.7c0-0.4,0-0.8,0-1.1
		c0-1.9,0.2-3.7,0.6-5.4c0.7-3-1.7-5.7-4.7-5.4c-12.1,1.2-21.3,4.8-31.1,11C63.1,56.9,53.9,67,47.7,79.5
		c-6.2,12.5-9.3,26.1-9.3,40.8c0,8.5,1.5,15.9,4.6,22.1c3.1,6.2,7.2,11,12.6,14.3c5.3,3.3,11.3,4.9,17.9,4.9
		c10.9,0,19.7-4.7,26.4-14c2-2.7,6.1-2.2,7.5,0.9c1.3,2.9,3,5.3,5.1,7.3c4.1,3.9,9.5,5.9,16.2,5.9c6.5,0,12-1.5,16.5-4.5
		c4.5-3,9.1-7.3,13.8-13.1c1.8-2.2,2.7-5.2,2.7-9C161.7,133.1,161.3,131.5,160.6,130.3z"/>
	<g>
		<path class="st6" d="M132.9,61c-5.7,0-10.3-4.6-10.3-10.3v-3c0-5.7,4.6-10.3,10.3-10.3h3c5.7,0,10.3,4.6,10.3,10.3v3
			c0,5.7-4.6,10.3-10.3,10.3H132.9z"/>
		<path class="st5" d="M135.8,39.9c4.3,0,7.8,3.5,7.8,7.8v3c0,4.3-3.5,7.8-7.8,7.8h-3c-4.3,0-7.8-3.5-7.8-7.8v-3
			c0-4.3,3.5-7.8,7.8-7.8H135.8 M135.8,34.9h-3c-7.1,0-12.8,5.7-12.8,12.8v3c0,7.1,5.7,12.8,12.8,12.8h3c7.1,0,12.8-5.7,12.8-12.8
			v-3C148.6,40.6,142.9,34.9,135.8,34.9L135.8,34.9z"/>
	</g>
</g>
</svg>
